<svg width="163" height="75" viewBox="0 0 163 75" fill="none" xmlns="http://www.w3.org/2000/svg">
<path d="M12 20.64C15.744 20.64 18.8 20.992 21.168 21.696C23.568 22.4 25.424 23.728 26.736 25.68C28.08 27.632 28.752 30.432 28.752 34.08C28.752 37.984 28.048 40.96 26.64 43.008C25.232 45.024 23.344 46.368 20.976 47.04C18.608 47.68 15.616 48 12 48H2.4V20.64H12ZM18.432 41.472C18.816 41.088 19.088 40.096 19.248 38.496C19.408 36.896 19.488 35.424 19.488 34.08C19.488 32.384 19.36 31.04 19.104 30.048C18.88 29.024 18.464 28.208 17.856 27.6C16.896 26.544 15.248 26.016 12.912 26.016C12.496 26.016 11.872 26.048 11.04 26.112V42.048C11.584 42.112 12.432 42.144 13.584 42.144C14.768 42.144 15.808 42.096 16.704 42C17.632 41.872 18.208 41.696 18.432 41.472ZM64.74 23.184C63.652 23.184 62.708 22.816 61.908 22.08C61.14 21.344 60.756 20.464 60.756 19.44C60.756 18.416 61.14 17.536 61.908 16.8C62.708 16.064 63.652 15.696 64.74 15.696C65.828 15.696 66.756 16.064 67.524 16.8C68.292 17.536 68.676 18.416 68.676 19.44C68.676 20.464 68.292 21.344 67.524 22.08C66.756 22.816 65.828 23.184 64.74 23.184ZM60.612 25.92H68.82V48H60.612V25.92ZM73.0339 19.2L81.2419 18.864V48H73.0339V19.2ZM108.16 25.92L102.4 44.4C101.28 47.952 100.272 50.528 99.3758 52.128C98.4798 53.76 97.5838 54.896 96.6878 55.536C96.1758 55.888 95.3598 56.16 94.2398 56.352C93.1518 56.544 91.9678 56.64 90.6878 56.64C88.7678 56.64 87.2318 56.464 86.0798 56.112C86.0478 55.344 86.0798 54.4 86.1758 53.28C86.2718 52.192 86.3998 51.264 86.5598 50.496C87.9038 50.56 89.2158 50.592 90.4958 50.592C91.4558 50.592 92.1758 50.576 92.6558 50.544C93.1358 49.616 93.5838 48.64 93.9998 47.616L90.6878 47.424L83.2957 25.92H91.9838L95.8238 41.376L95.8718 42.288H96.0157L99.4718 25.92H108.16Z" fill="black"/>
<path d="M45.3555 48V42.768H33.2115L31.1475 37.104L44.3475 17.52H53.0355V36.768H57.0675V42.768H53.0355V48H45.3555ZM38.7795 36.768H45.3555V26.688H45.1635L38.7795 36.768Z" fill="#006FFF"/>
<path d="M6.12 55.056H5.432V56H4.032V55.056H2.328L2.056 54.24C2.28533 53.824 2.584 53.36 2.952 52.848C3.32 52.336 3.68 51.8667 4.032 51.44H5.432V54.128H6.12V55.056ZM4.056 52.712C3.752 53.1493 3.44533 53.6213 3.136 54.128H4.056V52.712Z" fill="#006FFF"/>
<path d="M29.2022 51.864C29.0209 51.864 28.8635 51.8027 28.7302 51.68C28.6022 51.5573 28.5382 51.4107 28.5382 51.24C28.5382 51.0693 28.6022 50.9227 28.7302 50.8C28.8635 50.6773 29.0209 50.616 29.2022 50.616C29.3835 50.616 29.5382 50.6773 29.6662 50.8C29.7942 50.9227 29.8582 51.0693 29.8582 51.24C29.8582 51.4107 29.7942 51.5573 29.6662 51.68C29.5382 51.8027 29.3835 51.864 29.2022 51.864ZM28.5142 52.32H29.8822V56H28.5142V52.32ZM56.0405 52.552C56.0885 52.6107 56.1232 52.7573 56.1445 52.992C56.1712 53.2267 56.1845 53.584 56.1845 54.064V56H54.8165V54.08V53.752C54.8165 53.5813 54.8032 53.4747 54.7765 53.432C54.7338 53.3787 54.6352 53.352 54.4805 53.352C54.4058 53.352 54.3498 53.3547 54.3125 53.36C54.1632 53.3653 54.0085 53.4 53.8485 53.464V56H52.4805V52.32H53.5925L53.7445 52.936C54.1285 52.472 54.5872 52.24 55.1205 52.24C55.3125 52.24 55.4912 52.2667 55.6565 52.32C55.8272 52.3733 55.9552 52.4507 56.0405 52.552ZM80.9604 51.44V56H79.5604V52.592L78.5684 52.8L78.4164 51.96L79.8324 51.44H80.9604Z" fill="#636363"/>
<rect x="114" y="15" width="1" height="42" rx="0.5" fill="#C1C1C1"/>
<path d="M122.273 20.0469C122.243 19.9432 122.201 19.8516 122.147 19.772C122.093 19.6911 122.027 19.6229 121.949 19.5675C121.872 19.5107 121.784 19.4673 121.685 19.4375C121.587 19.4077 121.478 19.3928 121.359 19.3928C121.136 19.3928 120.94 19.4482 120.771 19.5589C120.603 19.6697 120.472 19.831 120.379 20.0426C120.285 20.2528 120.238 20.5099 120.238 20.8139C120.238 21.1179 120.284 21.3764 120.376 21.5895C120.469 21.8026 120.599 21.9652 120.768 22.0774C120.938 22.1882 121.137 22.2436 121.367 22.2436C121.576 22.2436 121.754 22.2067 121.902 22.1328C122.051 22.0575 122.165 21.9517 122.243 21.8153C122.322 21.679 122.362 21.5178 122.362 21.3317L122.55 21.3594H121.425V20.6648H123.251V21.2145C123.251 21.598 123.17 21.9276 123.008 22.2031C122.846 22.4773 122.623 22.6889 122.339 22.8381C122.055 22.9858 121.729 23.0597 121.363 23.0597C120.954 23.0597 120.594 22.9695 120.285 22.7891C119.975 22.6072 119.734 22.3494 119.56 22.0156C119.388 21.6804 119.303 21.2827 119.303 20.8224C119.303 20.4687 119.354 20.1534 119.456 19.8764C119.56 19.598 119.705 19.3622 119.891 19.169C120.077 18.9759 120.293 18.8288 120.54 18.728C120.788 18.6271 121.055 18.5767 121.344 18.5767C121.591 18.5767 121.821 18.6129 122.034 18.6854C122.247 18.7564 122.436 18.8572 122.601 18.9879C122.767 19.1186 122.903 19.2741 123.008 19.4545C123.113 19.6335 123.18 19.831 123.21 20.0469H122.273ZM127.225 21.6065V19.7273H128.133V23H127.262V22.4055H127.228C127.154 22.5973 127.031 22.7514 126.859 22.8679C126.688 22.9844 126.48 23.0426 126.235 23.0426C126.016 23.0426 125.823 22.9929 125.657 22.8935C125.491 22.794 125.361 22.6527 125.267 22.4695C125.175 22.2862 125.128 22.0668 125.127 21.8111V19.7273H126.034V21.6491C126.036 21.8423 126.088 21.995 126.19 22.1072C126.292 22.2195 126.429 22.2756 126.601 22.2756C126.71 22.2756 126.813 22.2507 126.908 22.201C127.003 22.1499 127.08 22.0746 127.138 21.9751C127.198 21.8757 127.227 21.7528 127.225 21.6065ZM125.985 19.2798C125.863 19.2798 125.758 19.2372 125.67 19.152C125.582 19.0653 125.538 18.9631 125.538 18.8452C125.538 18.7244 125.582 18.6222 125.67 18.5384C125.758 18.4545 125.863 18.4126 125.985 18.4126C126.109 18.4126 126.213 18.4545 126.299 18.5384C126.385 18.6222 126.429 18.7244 126.429 18.8452C126.429 18.9631 126.385 19.0653 126.299 19.152C126.213 19.2372 126.109 19.2798 125.985 19.2798ZM127.289 19.2798C127.167 19.2798 127.062 19.2372 126.974 19.152C126.886 19.0653 126.842 18.9631 126.842 18.8452C126.842 18.7244 126.886 18.6222 126.974 18.5384C127.062 18.4545 127.167 18.4126 127.289 18.4126C127.413 18.4126 127.517 18.4545 127.603 18.5384C127.689 18.6222 127.732 18.7244 127.732 18.8452C127.732 18.9631 127.689 19.0653 127.603 19.152C127.517 19.2372 127.413 19.2798 127.289 19.2798ZM130.967 21.108V23H130.059V19.7273H130.924V20.3047H130.962C131.035 20.1143 131.156 19.9638 131.327 19.853C131.497 19.7408 131.704 19.6847 131.947 19.6847C132.174 19.6847 132.372 19.7344 132.541 19.8338C132.71 19.9332 132.842 20.0753 132.936 20.2599C133.029 20.4432 133.076 20.6619 133.076 20.9162V23H132.168V21.0781C132.17 20.8778 132.119 20.7216 132.015 20.6094C131.911 20.4957 131.769 20.4389 131.587 20.4389C131.465 20.4389 131.357 20.4652 131.263 20.5178C131.171 20.5703 131.098 20.647 131.046 20.7479C130.994 20.8473 130.968 20.9673 130.967 21.108ZM136.197 23.0533C135.949 23.0533 135.724 22.9893 135.522 22.8615C135.322 22.7322 135.163 22.5426 135.045 22.2926C134.928 22.0412 134.87 21.733 134.87 21.3679C134.87 20.9929 134.93 20.6811 135.051 20.4325C135.172 20.1825 135.332 19.9957 135.533 19.8722C135.734 19.7472 135.955 19.6847 136.195 19.6847C136.379 19.6847 136.531 19.7159 136.653 19.7784C136.777 19.8395 136.876 19.9162 136.952 20.0085C137.028 20.0994 137.087 20.1889 137.126 20.277H137.154V18.6364H138.06V23H137.165V22.4759H137.126C137.084 22.5668 137.023 22.657 136.945 22.7464C136.869 22.8345 136.769 22.9077 136.645 22.9659C136.523 23.0241 136.374 23.0533 136.197 23.0533ZM136.485 22.331C136.631 22.331 136.755 22.2912 136.856 22.2116C136.958 22.1307 137.036 22.0178 137.09 21.8729C137.146 21.728 137.173 21.5582 137.173 21.3636C137.173 21.169 137.146 21 137.092 20.8565C137.038 20.7131 136.96 20.6023 136.858 20.5241C136.756 20.446 136.631 20.407 136.485 20.407C136.336 20.407 136.21 20.4474 136.108 20.5284C136.006 20.6094 135.928 20.7216 135.876 20.8651C135.823 21.0085 135.797 21.1747 135.797 21.3636C135.797 21.554 135.823 21.7223 135.876 21.8686C135.93 22.0135 136.007 22.1271 136.108 22.2095C136.21 22.2905 136.336 22.331 136.485 22.331ZM141.497 23.0639C141.161 23.0639 140.871 22.9957 140.628 22.8594C140.387 22.7216 140.201 22.527 140.07 22.2756C139.939 22.0227 139.874 21.7237 139.874 21.3786C139.874 21.0419 139.939 20.7464 140.07 20.4922C140.201 20.2379 140.385 20.0398 140.622 19.8977C140.86 19.7557 141.14 19.6847 141.461 19.6847C141.677 19.6847 141.878 19.7195 142.064 19.7891C142.252 19.8572 142.415 19.9602 142.554 20.098C142.695 20.2358 142.804 20.4091 142.882 20.6179C142.961 20.8253 143 21.0682 143 21.3466V21.5959H140.236V21.0334H142.145C142.145 20.9027 142.117 20.7869 142.06 20.6861C142.003 20.5852 141.924 20.5064 141.823 20.4496C141.724 20.3913 141.608 20.3622 141.476 20.3622C141.338 20.3622 141.216 20.3942 141.11 20.4581C141.005 20.5206 140.922 20.6051 140.862 20.7116C140.803 20.8168 140.772 20.9339 140.771 21.0632V21.598C140.771 21.7599 140.801 21.8999 140.86 22.0178C140.921 22.1357 141.007 22.2266 141.118 22.2905C141.229 22.3544 141.36 22.3864 141.512 22.3864C141.613 22.3864 141.706 22.3722 141.789 22.3438C141.873 22.3153 141.945 22.2727 142.005 22.2159C142.064 22.1591 142.11 22.0895 142.141 22.0071L142.98 22.0625C142.938 22.2642 142.85 22.4403 142.718 22.5909C142.588 22.7401 142.419 22.8565 142.211 22.9403C142.005 23.0227 141.767 23.0639 141.497 23.0639ZM144.792 23V19.7273H145.657V20.3047H145.695C145.763 20.1129 145.877 19.9616 146.036 19.8509C146.195 19.7401 146.386 19.6847 146.607 19.6847C146.832 19.6847 147.023 19.7408 147.18 19.853C147.338 19.9638 147.443 20.1143 147.496 20.3047H147.53C147.597 20.1172 147.717 19.9673 147.892 19.8551C148.068 19.7415 148.276 19.6847 148.516 19.6847C148.822 19.6847 149.07 19.782 149.26 19.9766C149.452 20.1697 149.548 20.4439 149.548 20.799V23H148.642V20.978C148.642 20.7962 148.594 20.6598 148.497 20.5689C148.401 20.478 148.28 20.4325 148.135 20.4325C147.97 20.4325 147.842 20.4851 147.749 20.5902C147.657 20.6939 147.611 20.831 147.611 21.0014V23H146.731V20.9588C146.731 20.7983 146.685 20.6705 146.592 20.5753C146.501 20.4801 146.381 20.4325 146.232 20.4325C146.131 20.4325 146.04 20.4581 145.96 20.5092C145.88 20.5589 145.817 20.6293 145.77 20.7202C145.723 20.8097 145.7 20.9148 145.7 21.0355V23H144.792ZM120.131 34H119.143L120.649 29.6364H121.838L123.342 34H122.354L121.261 30.6335H121.227L120.131 34ZM120.07 32.2848H122.405V33.005H120.07V32.2848ZM125.958 32.108V34H125.05V30.7273H125.916V31.3047H125.954C126.026 31.1143 126.148 30.9638 126.318 30.853C126.489 30.7408 126.695 30.6847 126.938 30.6847C127.166 30.6847 127.364 30.7344 127.533 30.8338C127.702 30.9332 127.833 31.0753 127.927 31.2599C128.021 31.4432 128.068 31.6619 128.068 31.9162V34H127.16V32.0781C127.161 31.8778 127.11 31.7216 127.006 31.6094C126.903 31.4957 126.76 31.4389 126.578 31.4389C126.456 31.4389 126.348 31.4652 126.254 31.5178C126.162 31.5703 126.09 31.647 126.037 31.7479C125.986 31.8473 125.96 31.9673 125.958 32.108ZM130.916 34.0618C130.707 34.0618 130.521 34.0256 130.358 33.9531C130.195 33.8793 130.065 33.7706 129.97 33.6271C129.876 33.4822 129.83 33.3018 129.83 33.0859C129.83 32.9041 129.863 32.7514 129.93 32.6278C129.996 32.5043 130.087 32.4048 130.202 32.3295C130.317 32.2543 130.448 32.1974 130.594 32.1591C130.742 32.1207 130.897 32.0938 131.059 32.0781C131.249 32.0582 131.403 32.0398 131.519 32.0227C131.636 32.0043 131.72 31.9773 131.773 31.9418C131.825 31.9062 131.852 31.8537 131.852 31.7841V31.7713C131.852 31.6364 131.809 31.532 131.724 31.4581C131.64 31.3842 131.521 31.3473 131.366 31.3473C131.202 31.3473 131.072 31.3835 130.976 31.456C130.879 31.527 130.815 31.6165 130.784 31.7244L129.945 31.6562C129.987 31.4574 130.071 31.2855 130.196 31.1406C130.321 30.9943 130.482 30.8821 130.68 30.804C130.879 30.7244 131.109 30.6847 131.37 30.6847C131.552 30.6847 131.726 30.706 131.892 30.7486C132.06 30.7912 132.208 30.8572 132.337 30.9467C132.468 31.0362 132.571 31.1513 132.646 31.2919C132.722 31.4311 132.759 31.598 132.759 31.7926V34H131.898V33.5462H131.873C131.82 33.6484 131.75 33.7386 131.662 33.8168C131.574 33.8935 131.468 33.9538 131.344 33.9979C131.221 34.0405 131.078 34.0618 130.916 34.0618ZM131.176 33.4354C131.31 33.4354 131.428 33.4091 131.53 33.3565C131.632 33.3026 131.712 33.2301 131.771 33.1392C131.829 33.0483 131.858 32.9453 131.858 32.8303V32.483C131.83 32.5014 131.79 32.5185 131.741 32.5341C131.692 32.5483 131.638 32.5618 131.577 32.5746C131.516 32.5859 131.455 32.5966 131.393 32.6065C131.332 32.6151 131.277 32.6229 131.227 32.63C131.121 32.6456 131.028 32.6705 130.948 32.7045C130.869 32.7386 130.807 32.7848 130.763 32.843C130.719 32.8999 130.697 32.9709 130.697 33.0561C130.697 33.1797 130.741 33.2741 130.831 33.3395C130.922 33.4034 131.037 33.4354 131.176 33.4354ZM135.571 29.6364V34H134.663V29.6364H135.571ZM137.498 34V30.7273H138.406V34H137.498ZM137.954 30.3054C137.819 30.3054 137.703 30.2607 137.607 30.1712C137.512 30.0803 137.464 29.9716 137.464 29.8452C137.464 29.7202 137.512 29.6129 137.607 29.5234C137.703 29.4325 137.819 29.3871 137.954 29.3871C138.089 29.3871 138.204 29.4325 138.299 29.5234C138.396 29.6129 138.444 29.7202 138.444 29.8452C138.444 29.9716 138.396 30.0803 138.299 30.1712C138.204 30.2607 138.089 30.3054 137.954 30.3054ZM140.316 34V33.4588L141.918 31.4751V31.4517H140.371V30.7273H143.011V31.3175L141.507 33.2521V33.2756H143.067V34H140.316ZM119.213 41.397V40.6364H122.797V41.397H121.461V45H120.549V41.397H119.213ZM124.23 45V41.7273H125.11V42.2983H125.144C125.204 42.0952 125.304 41.9418 125.445 41.8381C125.585 41.733 125.747 41.6804 125.93 41.6804C125.976 41.6804 126.025 41.6832 126.077 41.6889C126.13 41.6946 126.176 41.7024 126.216 41.7124V42.5178C126.173 42.505 126.114 42.4936 126.039 42.4837C125.964 42.4737 125.895 42.4688 125.832 42.4688C125.699 42.4688 125.58 42.4979 125.475 42.5561C125.371 42.6129 125.288 42.6925 125.227 42.7947C125.168 42.897 125.138 43.0149 125.138 43.1484V45H124.23ZM129.224 45.0639C128.888 45.0639 128.598 44.9957 128.355 44.8594C128.114 44.7216 127.928 44.527 127.797 44.2756C127.666 44.0227 127.601 43.7237 127.601 43.3786C127.601 43.0419 127.666 42.7464 127.797 42.4922C127.928 42.2379 128.111 42.0398 128.349 41.8977C128.587 41.7557 128.867 41.6847 129.188 41.6847C129.404 41.6847 129.605 41.7195 129.791 41.7891C129.979 41.8572 130.142 41.9602 130.281 42.098C130.422 42.2358 130.531 42.4091 130.609 42.6179C130.687 42.8253 130.727 43.0682 130.727 43.3466V43.5959H127.963V43.0334H129.872C129.872 42.9027 129.844 42.7869 129.787 42.6861C129.73 42.5852 129.651 42.5064 129.55 42.4496C129.451 42.3913 129.335 42.3622 129.203 42.3622C129.065 42.3622 128.943 42.3942 128.837 42.4581C128.731 42.5206 128.649 42.6051 128.589 42.7116C128.53 42.8168 128.499 42.9339 128.498 43.0632V43.598C128.498 43.7599 128.528 43.8999 128.587 44.0178C128.648 44.1357 128.734 44.2266 128.845 44.2905C128.956 44.3544 129.087 44.3864 129.239 44.3864C129.34 44.3864 129.432 44.3722 129.516 44.3438C129.6 44.3153 129.672 44.2727 129.731 44.2159C129.791 44.1591 129.837 44.0895 129.868 44.0071L130.707 44.0625C130.665 44.2642 130.577 44.4403 130.445 44.5909C130.315 44.7401 130.146 44.8565 129.938 44.9403C129.732 45.0227 129.494 45.0639 129.224 45.0639ZM133.427 43.108V45H132.519V41.7273H133.384V42.3047H133.422C133.495 42.1143 133.616 41.9638 133.787 41.853C133.957 41.7408 134.164 41.6847 134.407 41.6847C134.634 41.6847 134.832 41.7344 135.001 41.8338C135.17 41.9332 135.302 42.0753 135.395 42.2599C135.489 42.4432 135.536 42.6619 135.536 42.9162V45H134.628V43.0781C134.63 42.8778 134.579 42.7216 134.475 42.6094C134.371 42.4957 134.228 42.4389 134.047 42.4389C133.924 42.4389 133.816 42.4652 133.723 42.5178C133.63 42.5703 133.558 42.647 133.505 42.7479C133.454 42.8473 133.428 42.9673 133.427 43.108ZM138.657 45.0533C138.409 45.0533 138.184 44.9893 137.982 44.8615C137.782 44.7322 137.622 44.5426 137.505 44.2926C137.388 44.0412 137.33 43.733 137.33 43.3679C137.33 42.9929 137.39 42.6811 137.511 42.4325C137.632 42.1825 137.792 41.9957 137.992 41.8722C138.194 41.7472 138.415 41.6847 138.655 41.6847C138.838 41.6847 138.991 41.7159 139.113 41.7784C139.237 41.8395 139.336 41.9162 139.412 42.0085C139.488 42.0994 139.546 42.1889 139.586 42.277H139.614V40.6364H140.519V45H139.625V44.4759H139.586C139.544 44.5668 139.483 44.657 139.405 44.7464C139.328 44.8345 139.228 44.9077 139.105 44.9659C138.983 45.0241 138.833 45.0533 138.657 45.0533ZM138.945 44.331C139.091 44.331 139.215 44.2912 139.316 44.2116C139.418 44.1307 139.496 44.0178 139.55 43.8729C139.605 43.728 139.633 43.5582 139.633 43.3636C139.633 43.169 139.606 43 139.552 42.8565C139.498 42.7131 139.42 42.6023 139.318 42.5241C139.215 42.446 139.091 42.407 138.945 42.407C138.796 42.407 138.67 42.4474 138.568 42.5284C138.465 42.6094 138.388 42.7216 138.336 42.8651C138.283 43.0085 138.257 43.1747 138.257 43.3636C138.257 43.554 138.283 43.7223 138.336 43.8686C138.389 44.0135 138.467 44.1271 138.568 44.2095C138.67 44.2905 138.796 44.331 138.945 44.331ZM123.389 53.8182C123.389 54.294 123.299 54.6989 123.119 55.0327C122.94 55.3665 122.695 55.6214 122.386 55.7976C122.077 55.9723 121.731 56.0597 121.346 56.0597C120.958 56.0597 120.61 55.9716 120.302 55.7955C119.994 55.6193 119.75 55.3643 119.571 55.0305C119.392 54.6967 119.303 54.2926 119.303 53.8182C119.303 53.3423 119.392 52.9375 119.571 52.6037C119.75 52.2699 119.994 52.0156 120.302 51.8409C120.61 51.6648 120.958 51.5767 121.346 51.5767C121.731 51.5767 122.077 51.6648 122.386 51.8409C122.695 52.0156 122.94 52.2699 123.119 52.6037C123.299 52.9375 123.389 53.3423 123.389 53.8182ZM122.454 53.8182C122.454 53.5099 122.408 53.25 122.315 53.0384C122.224 52.8267 122.096 52.6662 121.93 52.5568C121.763 52.4474 121.569 52.3928 121.346 52.3928C121.123 52.3928 120.928 52.4474 120.762 52.5568C120.596 52.6662 120.467 52.8267 120.374 53.0384C120.283 53.25 120.238 53.5099 120.238 53.8182C120.238 54.1264 120.283 54.3864 120.374 54.598C120.467 54.8097 120.596 54.9702 120.762 55.0795C120.928 55.1889 121.123 55.2436 121.346 55.2436C121.569 55.2436 121.763 55.1889 121.93 55.0795C122.096 54.9702 122.224 54.8097 122.315 54.598C122.408 54.3864 122.454 54.1264 122.454 53.8182ZM120.696 51.1889C120.574 51.1889 120.469 51.1463 120.381 51.0611C120.293 50.9744 120.249 50.8722 120.249 50.7543C120.249 50.6335 120.293 50.5312 120.381 50.4474C120.469 50.3636 120.574 50.3217 120.696 50.3217C120.82 50.3217 120.924 50.3636 121.009 50.4474C121.096 50.5312 121.139 50.6335 121.139 50.7543C121.139 50.8722 121.096 50.9744 121.009 51.0611C120.924 51.1463 120.82 51.1889 120.696 51.1889ZM122 51.1889C121.878 51.1889 121.773 51.1463 121.685 51.0611C121.597 50.9744 121.553 50.8722 121.553 50.7543C121.553 50.6335 121.597 50.5312 121.685 50.4474C121.773 50.3636 121.878 50.3217 122 50.3217C122.124 50.3217 122.228 50.3636 122.313 50.4474C122.4 50.5312 122.443 50.6335 122.443 50.7543C122.443 50.8722 122.4 50.9744 122.313 51.0611C122.228 51.1463 122.124 51.1889 122 51.1889ZM125.239 56V55.4588L126.841 53.4751V53.4517H125.294V52.7273H127.934V53.3175L126.43 55.2521V55.2756H127.989V56H125.239ZM131.281 56.0639C130.944 56.0639 130.655 55.9957 130.412 55.8594C130.17 55.7216 129.984 55.527 129.853 55.2756C129.723 55.0227 129.657 54.7237 129.657 54.3786C129.657 54.0419 129.723 53.7464 129.853 53.4922C129.984 53.2379 130.168 53.0398 130.405 52.8977C130.644 52.7557 130.924 52.6847 131.245 52.6847C131.461 52.6847 131.662 52.7195 131.848 52.7891C132.035 52.8572 132.199 52.9602 132.338 53.098C132.478 53.2358 132.588 53.4091 132.666 53.6179C132.744 53.8253 132.783 54.0682 132.783 54.3466V54.5959H130.02V54.0334H131.929C131.929 53.9027 131.9 53.7869 131.844 53.6861C131.787 53.5852 131.708 53.5064 131.607 53.4496C131.508 53.3913 131.392 53.3622 131.26 53.3622C131.122 53.3622 131 53.3942 130.893 53.4581C130.788 53.5206 130.706 53.6051 130.646 53.7116C130.586 53.8168 130.556 53.9339 130.554 54.0632V54.598C130.554 54.7599 130.584 54.8999 130.644 55.0178C130.705 55.1357 130.791 55.2266 130.902 55.2905C131.013 55.3544 131.144 55.3864 131.296 55.3864C131.397 55.3864 131.489 55.3722 131.573 55.3438C131.657 55.3153 131.728 55.2727 131.788 55.2159C131.848 55.1591 131.893 55.0895 131.925 55.0071L132.764 55.0625C132.721 55.2642 132.634 55.4403 132.502 55.5909C132.371 55.7401 132.202 55.8565 131.995 55.9403C131.789 56.0227 131.551 56.0639 131.281 56.0639ZM136.316 52.7273V53.4091H134.345V52.7273H136.316ZM134.793 51.9432H135.7V54.9943C135.7 55.0781 135.713 55.1435 135.739 55.1903C135.764 55.2358 135.8 55.2678 135.845 55.2862C135.892 55.3047 135.946 55.3139 136.007 55.3139C136.05 55.3139 136.093 55.3104 136.135 55.3033C136.178 55.2947 136.21 55.2884 136.233 55.2841L136.376 55.9595C136.33 55.9737 136.267 55.9901 136.184 56.0085C136.102 56.0284 136.002 56.0405 135.884 56.0447C135.665 56.0533 135.473 56.0241 135.308 55.9574C135.145 55.8906 135.018 55.7869 134.927 55.6463C134.836 55.5057 134.791 55.3281 134.793 55.1136V51.9432Z" fill="black"/>
</svg>
